<svg width="24" height="22" viewBox="0 0 24 22" fill="none" xmlns="http://www.w3.org/2000/svg">
<g clip-path="url(#clip0_58_2)">
<path d="M21.3749 2.30596C20.1576 1.00699 18.5006 0.207191 16.7263 0.0621036C14.952 -0.0829841 13.1871 0.437009 11.7749 1.52096C10.2916 0.363028 8.41222 -0.164629 6.543 0.0520649C4.67378 0.268759 2.96494 1.21239 1.78591 2.67896C0.566464 4.17494 -0.0662622 6.06391 0.00606977 7.99258C0.0784018 9.92125 0.850838 11.7575 2.17891 13.158L9.47891 20.791C9.77522 21.1007 10.1312 21.3472 10.5254 21.5156C10.9196 21.684 11.3438 21.7708 11.7724 21.7708C12.2011 21.7708 12.6253 21.684 13.0194 21.5156C13.4136 21.3472 13.7696 21.1007 14.0659 20.791L21.3659 13.158C22.7458 11.6887 23.5146 9.74934 23.5163 7.73374C23.5179 5.71814 22.7523 3.77749 21.3749 2.30596ZM19.7119 11.461L12.4119 19.079C12.3307 19.1661 12.2324 19.2356 12.1231 19.2831C12.0139 19.3307 11.896 19.3552 11.7769 19.3552C11.6578 19.3552 11.5399 19.3307 11.4307 19.2831C11.3214 19.2356 11.2231 19.1661 11.1419 19.079L3.84191 11.421C2.9167 10.4182 2.40297 9.10384 2.40297 7.73946C2.40297 6.37508 2.9167 5.06072 3.84191 4.05796C4.29727 3.58037 4.84483 3.20018 5.45142 2.94042C6.05802 2.68065 6.71103 2.54671 7.37091 2.54671C8.03079 2.54671 8.6838 2.68065 9.2904 2.94042C9.89699 3.20018 10.4446 3.58037 10.8999 4.05796C11.0068 4.17248 11.136 4.2638 11.2797 4.32624C11.4233 4.38868 11.5783 4.4209 11.7349 4.4209C11.8915 4.4209 12.0465 4.38868 12.1901 4.32624C12.3338 4.2638 12.4631 4.17248 12.5699 4.05796C13.0253 3.58037 13.5728 3.20018 14.1794 2.94042C14.786 2.68065 15.439 2.54671 16.0989 2.54671C16.7588 2.54671 17.4118 2.68065 18.0184 2.94042C18.625 3.20018 19.1726 3.58037 19.6279 4.05796C20.566 5.04886 21.0966 6.35668 21.114 7.72109C21.1314 9.0855 20.6344 10.4064 19.7219 11.421L19.7119 11.461Z" fill="#FF0000"/>
<path d="M19.7119 11.461L12.4119 19.079C12.3307 19.1661 12.2324 19.2356 12.1231 19.2831C12.0139 19.3307 11.896 19.3552 11.7769 19.3552C11.6578 19.3552 11.5399 19.3307 11.4307 19.2831C11.3214 19.2356 11.2231 19.1661 11.1419 19.079L3.84191 11.421C2.9167 10.4182 2.40297 9.10384 2.40297 7.73946C2.40297 6.37508 2.9167 5.06072 3.84191 4.05796C4.29727 3.58037 4.84483 3.20018 5.45142 2.94042C6.05802 2.68065 6.71103 2.54671 7.37091 2.54671C8.03079 2.54671 8.6838 2.68065 9.2904 2.94042C9.89699 3.20018 10.4446 3.58037 10.8999 4.05796C11.0068 4.17248 11.136 4.2638 11.2797 4.32624C11.4233 4.38868 11.5783 4.4209 11.7349 4.4209C11.8915 4.4209 12.0465 4.38868 12.1901 4.32624C12.3338 4.2638 12.4631 4.17248 12.5699 4.05796C13.0253 3.58037 13.5728 3.20018 14.1794 2.94042C14.786 2.68065 15.439 2.54671 16.0989 2.54671C16.7588 2.54671 17.4118 2.68065 18.0184 2.94042C18.625 3.20018 19.1726 3.58037 19.6279 4.05796C20.566 5.04886 21.0966 6.35668 21.114 7.72109C21.1314 9.0855 20.6344 10.4064 19.7219 11.421L19.7119 11.461Z" fill="#FF0000"/>
</g>
<defs>
<clipPath id="clip0_58_2">
<rect width="23.52" height="21.768" fill="white"/>
</clipPath>
</defs>
</svg>
