<svg width="15" height="14" viewBox="0 0 15 14" fill="none" xmlns="http://www.w3.org/2000/svg">
<g clip-path="url(#clip0_61_2)">
<path d="M11.2591 13.1039C11.2673 13.2191 11.2704 13.3165 11.2693 13.3964C11.1954 13.3718 11.107 13.3379 11.0038 13.2936C10.6388 13.1367 10.1788 12.8893 9.69353 12.6177C9.54737 12.5359 9.39856 12.4517 9.25052 12.3679C8.91838 12.18 8.59012 11.9942 8.30444 11.8428C8.09674 11.7328 7.89881 11.6339 7.7269 11.5614C7.57774 11.4984 7.37398 11.4215 7.18492 11.42C6.99593 11.4186 6.79102 11.4921 6.64086 11.5527C6.46781 11.6224 6.2683 11.718 6.05885 11.8247C5.77097 11.9714 5.44001 12.1516 5.10513 12.334C4.95551 12.4155 4.8051 12.4974 4.6574 12.5769C4.16784 12.8405 3.70392 13.0804 3.33652 13.2312C3.23484 13.2729 3.14746 13.3049 3.07417 13.3281C3.07445 13.2488 3.07915 13.1525 3.08914 13.0389C3.12429 12.6394 3.21543 12.1208 3.32152 11.5712C3.35397 11.4031 3.38792 11.2316 3.42167 11.0611C3.49578 10.6868 3.56893 10.3174 3.62319 9.99874C3.66291 9.76548 3.69505 9.54545 3.7106 9.35869C3.72416 9.19586 3.73374 8.97974 3.67893 8.80126C3.62335 8.62026 3.49159 8.44671 3.38811 8.32101C3.26914 8.17648 3.11753 8.0146 2.95233 7.84662C2.72454 7.61498 2.45138 7.35229 2.17501 7.08652C2.05283 6.96902 1.93002 6.85092 1.81022 6.73464C1.41033 6.34645 1.04059 5.97528 0.78453 5.66883C0.709278 5.57876 0.649265 5.50062 0.603367 5.43453C0.67824 5.41001 0.771047 5.3844 0.882637 5.35847C1.26894 5.2687 1.78482 5.19606 2.33542 5.12814C2.50288 5.10749 2.67402 5.08722 2.84425 5.06706C3.22063 5.0225 3.59253 4.97846 3.91033 4.93189C4.1425 4.89786 4.36029 4.86052 4.54176 4.81733C4.69952 4.77977 4.90887 4.72119 5.06221 4.61072C5.21512 4.50057 5.33751 4.32059 5.42378 4.18254C5.52303 4.02369 5.62868 3.82821 5.73599 3.61771C5.88385 3.32767 6.04696 2.98475 6.21203 2.63772C6.28522 2.48383 6.3588 2.32914 6.43161 2.17789C6.67407 1.67418 6.90981 1.20453 7.11938 0.864009C7.17714 0.770166 7.22912 0.692452 7.27494 0.630009C7.31977 0.693191 7.37052 0.771749 7.42679 0.866532C7.63095 1.21041 7.85921 1.68384 8.09367 2.19144C8.16406 2.34383 8.23516 2.49968 8.3059 2.65471C8.46546 3.0044 8.62312 3.34995 8.76637 3.64237C8.87033 3.85458 8.97286 4.05173 9.06959 4.21215C9.15363 4.35154 9.27317 4.5335 9.42435 4.64606C9.57575 4.7588 9.78395 4.82078 9.94109 4.86095C10.1218 4.90713 10.3389 4.94811 10.5706 4.98601C10.8885 5.03804 11.2607 5.08842 11.6374 5.1394C11.8063 5.16227 11.9761 5.18525 12.1423 5.20856C12.6918 5.28562 13.2066 5.36675 13.5916 5.4627C13.7021 5.49024 13.7941 5.51715 13.8684 5.54269C13.8216 5.60758 13.7608 5.68408 13.6849 5.77204C13.4242 6.0742 13.0488 6.43945 12.643 6.82123C12.5203 6.93662 12.3946 7.05382 12.2695 7.17039C11.9901 7.43069 11.7141 7.68787 11.4836 7.91488C11.3157 8.08019 11.1615 8.23949 11.0402 8.38187C10.9345 8.50588 10.8003 8.67644 10.7412 8.85509C10.6823 9.03332 10.688 9.25035 10.6987 9.41334C10.7109 9.60049 10.7393 9.82114 10.7751 10.0551C10.8242 10.3765 10.8917 10.7495 10.96 11.1271C10.9906 11.2961 11.0213 11.4659 11.0507 11.6325C11.1478 12.1839 11.2304 12.7039 11.2591 13.1039Z" stroke="#F8B84E"/>
</g>
<defs>
<clipPath id="clip0_61_2">
<rect width="14.465" height="13.946" fill="white"/>
</clipPath>
</defs>
</svg>
