<svg width="18" height="15" viewBox="0 0 18 15" fill="none" xmlns="http://www.w3.org/2000/svg">
<g clip-path="url(#clip0_56_2)">
<path d="M12.6201 0C13.9925 0.00924874 15.3054 0.561408 16.2719 1.5358C17.2384 2.51018 17.7799 3.82756 17.7781 5.2V6.5L17.7721 6.586C17.752 6.73722 17.6778 6.87605 17.5633 6.9768C17.4487 7.07754 17.3016 7.13339 17.1491 7.134L17.1411 7.118L17.0411 7.11C16.9098 7.08879 16.7886 7.02647 16.6951 6.932C16.577 6.81278 16.5109 6.65176 16.5111 6.484V5.2C16.5057 4.16656 16.095 3.17648 15.3675 2.44254C14.6399 1.7086 13.6534 1.28939 12.6201 1.275H5.15805C4.12452 1.28913 3.13779 1.70823 2.41 2.44219C1.68221 3.17616 1.27146 4.16639 1.26605 5.2V9.8C1.2725 10.8329 1.68371 11.8221 2.41139 12.5552C3.13908 13.2883 4.12521 13.7069 5.15805 13.721H12.6201C13.6529 13.7069 14.639 13.2883 15.3667 12.5552C16.0944 11.8221 16.5056 10.8329 16.5121 9.8C16.5274 9.64275 16.6007 9.49683 16.7177 9.39067C16.8347 9.28451 16.9871 9.2257 17.1451 9.2257C17.303 9.2257 17.4554 9.28451 17.5724 9.39067C17.6894 9.49683 17.7627 9.64275 17.7781 9.8C17.7799 11.1724 17.2384 12.4898 16.2719 13.4642C15.3054 14.4386 13.9925 14.9908 12.6201 15H5.15805C3.78499 14.9929 2.47082 14.4414 1.50384 13.4665C0.536872 12.4917 -0.00393962 11.1731 5.12502e-05 9.8V5.2C-0.00297524 4.51981 0.128069 3.84569 0.385695 3.21617C0.643321 2.58665 1.02248 2.01407 1.50149 1.53115C1.98051 1.04823 2.55 0.664441 3.17741 0.401719C3.80482 0.138996 4.47786 0.00248964 5.15805 0L12.6201 0Z" fill="#8D8D8D"/>
<path d="M1 4H16.5" stroke="#8D8D8D"/>
</g>
<defs>
<clipPath id="clip0_56_2">
<rect width="17.778" height="15" fill="white"/>
</clipPath>
</defs>
</svg>
